<svg width="196" height="196" viewBox="0 0 196 196" fill="none" xmlns="http://www.w3.org/2000/svg">
<path d="M98 164.797C138.593 164.797 171.5 133.39 171.5 94.6483C171.5 55.9065 138.593 24.5 98 24.5C57.4071 24.5 24.5 55.9065 24.5 94.6483C24.5 133.39 57.4071 164.797 98 164.797Z" fill="#0952FD"/>
<path d="M38.3944 80.3551H49.3362V85.2638C51.3688 81.4436 54.8719 79.537 59.8455 79.5442C61.24 79.4832 62.6322 79.7109 63.9346 80.2133C65.237 80.7156 66.4215 81.4817 67.4139 82.4635C69.306 84.3988 70.2574 87.264 70.2574 91.0374V110.856H59.3589V93.1349C59.3589 89.7111 57.8308 87.9992 54.7746 87.9992C54.0437 87.959 53.3123 88.0676 52.6246 88.3186C51.937 88.5695 51.3074 88.9574 50.7742 89.4589C50.2494 90.0429 49.8485 90.7272 49.5958 91.4706C49.343 92.2139 49.2437 93.0008 49.3038 93.7837V110.867H38.3944V80.3551Z" fill="white"/>
<path d="M91.4385 111.558C86.3929 111.558 82.2592 110.2 79.0372 107.482C77.3624 106.088 76.033 104.324 75.1533 102.331C74.2736 100.337 73.8673 98.1662 73.9664 95.989V95.5241C73.8951 93.3254 74.313 91.1383 75.1899 89.1208C76.0668 87.1033 77.3809 85.3058 79.0372 83.858C82.252 80.9748 86.4074 79.5332 91.5034 79.5332C96.5995 79.5332 100.733 80.9315 103.905 83.7282C105.538 85.1537 106.835 86.9243 107.7 88.9119C108.566 90.8995 108.979 93.0545 108.911 95.2214V95.6863C108.993 97.8803 108.587 100.065 107.721 102.083C106.855 104.1 105.552 105.9 103.905 107.352C100.407 110.237 95.9694 111.734 91.4385 111.558V111.558ZM91.5034 103.806C95.6985 103.806 97.796 101.143 97.796 95.816V95.3511C97.796 90.0244 95.6985 87.361 91.5034 87.361C87.3084 87.361 85.1892 89.9848 85.146 95.2322V95.6971C85.146 101.103 87.2651 103.806 91.5034 103.806Z" fill="white"/>
<path d="M109.225 80.3548H120.642L125.291 98.6163L130.697 80.3548H139.434L144.202 98.6163L149.391 80.3548H159.782L149.64 110.855H139.196L134.46 93.8266L129.508 110.855H118.891L109.225 80.3548Z" fill="white"/>
</svg>
